HIERARCHY
ROOT Hips
{
	OFFSET 0.000000 0.000000 0.000000
	CHANNELS 6 Xposition Yposition Zposition Xrotation Yrotation Zrotation
	JOINT LeftUpLeg_virtual
	{
		OFFSET 0.000000 0.000000 0.000000
		CHANNELS 3 Xrotation Yrotation Zrotation
		JOINT LeftUpLeg
		{
			OFFSET 11.394100 -6.187798 -0.413800
			CHANNELS 3 Xrotation Yrotation Zrotation
			JOINT LeftLeg
			{
				OFFSET 0.430247 -32.302673 3.732800
				CHANNELS 3 Xrotation Yrotation Zrotation
				JOINT LeftFoot
				{
					OFFSET -0.430247 -48.264931 -6.423300
					CHANNELS 3 Xrotation Yrotation Zrotation
					JOINT LeftToeBase
					{
						OFFSET 4.230900 -16.068199 23.438400
						CHANNELS 3 Xrotation Yrotation Zrotation
						JOINT LeftToe_End
						{
							OFFSET 4.510700 0.695400 19.974600
							CHANNELS 3 Xrotation Yrotation Zrotation
							End Site
							{
								OFFSET 0 0 0
							}
						}
					}
				}
			}
		}
	}
	JOINT RightUpLeg_virtual
	{
		OFFSET 0.000000 0.000000 0.000000
		CHANNELS 3 Xrotation Yrotation Zrotation
		JOINT RightUpLeg
		{
			OFFSET -11.333700 -6.187798 -0.413800
			CHANNELS 3 Xrotation Yrotation Zrotation
			JOINT RightLeg
			{
				OFFSET -0.430392 -32.302628 3.733000
				CHANNELS 3 Xrotation Yrotation Zrotation
				JOINT RightFoot
				{
					OFFSET 0.430392 -48.264973 -6.423500
					CHANNELS 3 Xrotation Yrotation Zrotation
					JOINT RightToeBase
					{
						OFFSET -4.230900 -16.068199 23.438400
						CHANNELS 3 Xrotation Yrotation Zrotation
						JOINT RightToe_End
						{
							OFFSET -4.510700 0.695400 19.974600
							CHANNELS 3 Xrotation Yrotation Zrotation
							End Site
							{
								OFFSET 0 0 0
							}
						}
					}
				}
			}
		}
	}
	JOINT Spine_virtual
	{
		OFFSET 0.000000 0.000000 0.000000
		CHANNELS 3 Xrotation Yrotation Zrotation
		JOINT Spine
		{
			OFFSET -0.002400 12.777504 0.315300
			CHANNELS 3 Xrotation Yrotation Zrotation
			JOINT Spine1
			{
				OFFSET -0.002067 5.816869 0.032633
				CHANNELS 3 Xrotation Yrotation Zrotation
				JOINT Spine1_split
				{
					OFFSET -0.002067 5.816869 0.032633
					CHANNELS 3 Xrotation Yrotation Zrotation
					JOINT Spine2
					{
						OFFSET -0.002067 5.816869 0.032633
						CHANNELS 3 Xrotation Yrotation Zrotation
						JOINT Neck_virtual
						{
							OFFSET 0.000000 0.000000 0.000000
							CHANNELS 3 Xrotation Yrotation Zrotation
							JOINT Neck
							{
								OFFSET -0.003700 21.199493 -0.826900
								CHANNELS 3 Xrotation Yrotation Zrotation
								JOINT Head
								{
									OFFSET 0.000000 20.442200 4.834800
									CHANNELS 3 Xrotation Yrotation Zrotation
									JOINT HeadTop_End
									{
										OFFSET 0.000000 34.668396 4.968400
										CHANNELS 3 Xrotation Yrotation Zrotation
										End Site
										{
											OFFSET 0 0 0
										}
									}
								}
							}
						}
						JOINT LeftShoulder_virtual
						{
							OFFSET 0.000000 0.000000 0.000000
							CHANNELS 3 Xrotation Yrotation Zrotation
							JOINT LeftShoulder
							{
								OFFSET 3.288150 8.794197 -1.372250
								CHANNELS 3 Xrotation Yrotation Zrotation
								JOINT LeftShoulder_split
								{
									OFFSET 3.288150 8.794197 -1.372250
									CHANNELS 3 Xrotation Yrotation Zrotation
									JOINT LeftArm
									{
										OFFSET 11.953299 -2.279007 -0.146200
										CHANNELS 3 Xrotation Yrotation Zrotation
										JOINT LeftForeArm
										{
											OFFSET 18.448900 0.000000 0.000000
											CHANNELS 3 Xrotation Yrotation Zrotation
											JOINT LeftHand
											{
												OFFSET 29.527798 0.000000 0.000000
												CHANNELS 3 Xrotation Yrotation Zrotation
												End Site
												{
													OFFSET 0 0 0
												}
											}
										}
									}
								}
							}
						}
						JOINT RightShoulder_virtual
						{
							OFFSET 0.000000 0.000000 0.000000
							CHANNELS 3 Xrotation Yrotation Zrotation
							JOINT RightShoulder
							{
								OFFSET -3.249400 8.794197 -1.372250
								CHANNELS 3 Xrotation Yrotation Zrotation
								JOINT RightShoulder_split
								{
									OFFSET -3.249400 8.794197 -1.372250
									CHANNELS 3 Xrotation Yrotation Zrotation
									JOINT RightArm
									{
										OFFSET -11.953299 -2.279007 -0.146200
										CHANNELS 3 Xrotation Yrotation Zrotation
										JOINT RightForeArm
										{
											OFFSET -18.448900 0.000000 0.000000
											CHANNELS 3 Xrotation Yrotation Zrotation
											JOINT RightHand
											{
												OFFSET -29.527802 0.000000 0.000000
												CHANNELS 3 Xrotation Yrotation Zrotation
												End Site
												{
													OFFSET 0 0 0
												}
											}
										}
									}
								}
							}
						}
					}
				}
			}
		}
	}
}
MOTION
Frames: 11
Frame Time: 0.03333333
0.248535 138.667542 13.792488 0.000000 0.000000 0.000000 -87.044723 -4.880597 2.710248 -13.793113 14.820967 9.501298 5.743044 4.563551 8.797641 26.692808 27.013323 -21.253047 -11.229500 0.137761 3.317692 0.000000 0.000000 0.000000 -88.242643 -2.641221 3.738282 -19.583913 -15.126091 -15.164611 17.687354 -2.865530 -8.161588 29.207299 -30.889421 30.739611 -8.191440 1.806354 -4.012632 0.000000 0.000000 0.000000 -86.091789 -5.641635 0.831188 5.805442 -2.099351 0.659562 4.819511 -1.035078 -1.486745 0.293926 0.775391 -0.394969 0.000000 0.000000 0.000000 5.958598 -1.416240 -1.406003 -8.402874 -1.780294 2.836084 -9.037332 -4.003040 4.792260 0.000000 0.000000 0.000000 6.575539 -1.594412 -0.877059 -0.403495 4.024124 -7.509103 -3.451319 1.034242 -4.163946 39.725377 -31.964076 -34.696114 -28.514313 -88.611951 -27.862882 0.000000 0.000000 0.000000 5.670160 -1.698618 -1.571413 0.523235 -3.872395 19.121721 1.496221 2.673635 0.163882 -40.987962 49.327121 59.004133 179.653496 76.671319 178.475384 0.000000 0.000000 0.000000 
0.196865 138.437775 13.432533 0.000000 0.000000 0.000000 -87.889529 -4.822093 2.703062 -12.627709 15.140765 9.355515 5.719319 5.083803 8.870339 25.985463 27.619154 -21.217335 -11.230451 0.206249 3.377602 0.000000 0.000000 0.000000 -89.326068 -2.499482 3.897676 -19.086305 -16.008580 -15.387764 17.616986 -2.730775 -8.033296 29.043535 -30.523354 30.756963 -8.099685 1.937187 -4.153296 0.000000 0.000000 0.000000 -87.112745 -5.349157 0.985057 5.773581 -2.175910 0.748173 4.553938 -1.093764 -1.611021 0.467129 0.824437 -0.416806 0.000000 0.000000 0.000000 5.835294 -1.464267 -1.546707 -9.042849 -1.685768 2.997009 -10.889519 -3.536010 5.631495 0.000000 0.000000 0.000000 6.435826 -1.636932 -1.030649 -0.343772 3.622383 -6.794834 -3.651134 0.632711 -4.084337 38.976854 -31.958715 -35.904368 -28.192915 -88.713666 -27.445582 0.000000 0.000000 0.000000 5.439580 -1.727296 -1.692367 0.501357 -3.631833 17.824775 1.303518 2.949863 -0.018981 -44.767631 47.622965 61.489283 -178.555871 77.914031 176.611084 0.000000 0.000000 0.000000 
0.172633 138.268677 13.237949 0.000000 0.000000 0.000000 -88.416341 -4.687351 2.638610 -11.864240 15.205191 9.417314 5.971070 5.498226 8.874836 25.354453 28.275226 -21.237650 -11.283260 0.254001 3.492653 0.000000 0.000000 0.000000 -90.042882 -2.454367 3.832111 -18.830056 -16.723595 -15.528481 17.422059 -2.661626 -7.822823 29.401465 -30.057986 30.852272 -8.531220 2.055205 -4.280386 0.000000 0.000000 0.000000 -87.788544 -5.120781 0.995793 5.700192 -2.129909 0.918725 4.464767 -1.093072 -1.646515 0.620378 0.809243 -0.384473 0.000000 0.000000 0.000000 5.757658 -1.441299 -1.619091 -9.148201 -1.519303 2.806522 -11.073968 -2.971403 6.128418 0.000000 0.000000 0.000000 6.407570 -1.626305 -1.143244 -0.296859 3.175430 -6.335152 -3.721336 0.364141 -3.858807 38.504464 -32.092545 -36.535457 -26.453775 -88.969976 -25.681662 0.000000 0.000000 0.000000 5.368905 -1.660998 -1.717577 0.492282 -3.345256 16.791819 0.921621 2.993232 -0.149650 -46.344544 46.791819 61.928881 -176.790977 79.036149 174.836027 0.000000 0.000000 0.000000 
0.173267 138.201508 13.207790 0.000000 0.000000 0.000000 -88.587806 -4.519947 2.520851 -11.538145 14.984269 9.630558 6.347763 5.738101 8.835246 24.949037 28.841898 -21.344196 -11.309274 0.273612 3.630041 0.000000 0.000000 0.000000 -90.351750 -2.523016 3.550699 -18.746873 -17.068163 -15.550124 17.215772 -2.640940 -7.608901 30.226066 -29.564525 31.116846 -9.517550 2.126350 -4.369376 0.000000 0.000000 0.000000 -88.087953 -5.026488 0.849958 5.610061 -1.965323 1.137585 4.493252 -1.058643 -1.600442 0.837458 0.741381 -0.323190 0.000000 0.000000 0.000000 5.685137 -1.355761 -1.625728 -8.666125 -1.337125 2.323861 -9.473309 -2.350929 6.255568 0.000000 0.000000 0.000000 6.458190 -1.583363 -1.201485 -0.261303 2.764789 -6.138165 -3.567873 0.208985 -3.438909 38.428799 -32.418981 -36.557365 -22.904484 -89.304512 -22.160009 0.000000 0.000000 0.000000 5.449248 -1.534778 -1.656882 0.511656 -3.107702 16.168890 0.445553 2.890407 -0.202233 -45.035877 47.134999 60.102659 -175.721096 79.738538 173.858272 0.000000 0.000000 0.000000 
0.192008 138.240036 13.309162 0.000000 0.000000 0.000000 -88.493133 -4.444046 2.313931 -11.639119 14.471667 9.898472 6.684540 5.769564 8.807397 24.896244 29.251112 -21.524072 -11.216259 0.280424 3.714757 0.000000 0.000000 0.000000 -90.186890 -2.633889 3.162445 -18.768764 -16.940536 -15.400871 17.014790 -2.666924 -7.484729 31.179349 -29.269652 31.357224 -10.600531 2.124991 -4.393141 0.000000 0.000000 0.000000 -88.009194 -5.086850 0.557801 5.507984 -1.719698 1.349665 4.585118 -1.021246 -1.502063 1.043216 0.559667 -0.217025 0.000000 0.000000 0.000000 5.594975 -1.245416 -1.571044 -7.585644 -1.184922 1.681267 -6.071265 -1.781485 5.971023 0.000000 0.000000 0.000000 6.575800 -1.542043 -1.207057 -0.229290 2.479662 -6.141445 -3.340851 0.227310 -2.944014 38.694111 -32.861157 -36.134399 -20.175288 -89.593135 -19.484477 0.000000 0.000000 0.000000 5.627907 -1.402812 -1.534792 0.559219 -3.036850 16.020316 0.130516 2.839648 -0.274338 -40.310124 48.352125 55.932928 -175.957571 79.543584 174.308381 0.000000 0.000000 0.000000 
0.232294 138.370560 13.438118 0.000000 0.000000 0.000000 -88.121721 -4.507786 2.006585 -12.113267 13.745062 10.132452 6.843273 5.651144 8.810496 25.118051 29.494632 -21.671144 -10.948666 0.282795 3.696886 0.000000 0.000000 0.000000 -89.663916 -2.774548 2.716577 -18.914411 -16.380653 -15.101017 16.847573 -2.768014 -7.473319 31.952110 -29.318068 31.406490 -11.310479 2.049115 -4.289961 0.000000 0.000000 0.000000 -87.592866 -5.290889 0.146453 5.427045 -1.446716 1.509495 4.699309 -1.015367 -1.358763 1.128445 0.311539 -0.169755 0.000000 0.000000 0.000000 5.467160 -1.136992 -1.468556 -5.962804 -1.112456 0.985416 -1.105478 -1.427892 5.303234 0.000000 0.000000 0.000000 6.722417 -1.522785 -1.144413 -0.204398 2.433522 -6.255389 -3.030145 0.320760 -2.486739 39.195706 -33.408426 -35.450745 -20.143778 -89.668390 -19.538697 0.000000 0.000000 0.000000 5.855207 -1.298983 -1.374047 0.636495 -3.248401 16.320839 0.019699 2.844710 -0.331670 -32.215294 49.564043 49.610864 -177.433411 78.070660 176.085132 0.000000 0.000000 0.000000 
0.274057 138.552719 13.617939 0.000000 0.000000 0.000000 -87.572977 -4.718207 1.619202 -12.889427 12.966775 10.305323 6.774860 5.464436 8.861228 25.521026 29.556827 -21.688699 -10.599597 0.289559 3.551913 0.000000 0.000000 0.000000 -88.879011 -2.927049 2.294560 -19.255027 -15.507014 -14.734841 16.772839 -2.902694 -7.585387 32.529821 -29.655493 31.263989 -11.660094 1.933074 -4.043958 0.000000 0.000000 0.000000 -86.953765 -5.562275 -0.316263 5.400034 -1.194719 1.589409 4.806028 -1.051411 -1.182206 1.138133 0.245102 -0.160836 0.000000 0.000000 0.000000 5.301031 -1.066993 -1.323063 -3.922025 -1.171074 0.339492 5.027757 -1.364844 4.339670 0.000000 0.000000 0.000000 6.846346 -1.541510 -1.012914 -0.188407 2.668685 -6.380352 -2.817814 0.384472 -2.175466 39.782727 -34.028979 -34.684087 -21.397012 -89.398666 -20.902022 0.000000 0.000000 0.000000 6.054549 -1.249150 -1.187751 0.737659 -3.806487 17.016252 0.047948 2.948849 -0.447736 -21.993600 49.674661 42.302240 -179.064337 75.252798 178.065204 0.000000 0.000000 0.000000 
0.324368 138.749435 13.778111 0.000000 0.000000 0.000000 -86.898181 -5.043940 1.175221 -13.887805 12.280803 10.407932 6.541315 5.227191 8.936902 26.004434 29.389484 -21.579503 -10.360053 0.287325 3.353639 0.000000 0.000000 0.000000 -87.990540 -3.095511 1.895131 -19.871356 -14.526129 -14.396743 16.843303 -3.016412 -7.781774 33.173693 -30.072339 31.160897 -11.922214 1.812405 -3.715686 0.000000 0.000000 0.000000 -86.180984 -5.831843 -0.775316 5.458259 -1.009583 1.583357 4.877699 -1.147336 -0.976376 1.018239 0.299422 -0.228770 0.000000 0.000000 0.000000 5.101364 -1.051390 -1.139572 -1.635902 -1.308871 -0.203319 11.705578 -1.664711 3.216111 0.000000 0.000000 0.000000 6.902851 -1.606295 -0.818829 -0.185998 3.169372 -6.464629 -2.620340 0.440181 -2.097000 40.384679 -34.732776 -33.949763 -20.138012 -88.741192 -19.778469 0.000000 0.000000 0.000000 6.181285 -1.262539 -0.982752 0.866456 -4.692798 17.982467 0.169171 3.013750 -0.446561 -11.820481 48.164302 35.837121 179.830562 71.536867 179.490405 0.000000 0.000000 0.000000 
0.372307 138.917694 13.970657 0.000000 0.000000 0.000000 -86.197500 -5.369436 0.752518 -15.006458 11.826508 10.471185 6.289537 4.958629 9.002012 26.488481 28.949286 -21.357617 -10.287266 0.267582 3.163198 0.000000 0.000000 0.000000 -87.137866 -3.237542 1.556962 -20.757877 -13.640308 -14.156758 17.082438 -3.056267 -8.020124 34.043107 -30.360143 31.294018 -12.292192 1.708175 -3.362290 0.000000 0.000000 0.000000 -85.397971 -6.058400 -1.199380 5.625394 -0.910503 1.499258 4.892346 -1.308299 -0.737424 0.900875 0.532474 -0.224758 0.000000 0.000000 0.000000 4.879135 -1.116120 -0.913279 0.646728 -1.495072 -0.602574 18.332923 -2.197069 2.087397 0.000000 0.000000 0.000000 6.844913 -1.720912 -0.572465 -0.206734 3.870132 -6.496118 -2.435960 0.443659 -2.257865 40.973038 -35.551524 -33.267673 -18.125623 -87.792820 -17.922345 0.000000 0.000000 0.000000 6.207697 -1.330694 -0.760222 0.998531 -5.804298 19.135400 0.360617 3.124908 -0.353112 -3.573778 45.324336 31.650772 179.205750 67.814667 -179.640150 0.000000 0.000000 0.000000 
0.410168 139.052856 14.156982 0.000000 0.000000 0.000000 -85.584176 -5.617309 0.419324 -16.185766 11.667005 10.559951 6.166724 4.645108 9.030289 27.032813 28.231795 -21.139186 -10.348525 0.232649 3.042859 0.000000 0.000000 0.000000 -86.358405 -3.332893 1.288274 -21.736237 -13.004653 -14.002444 17.444863 -3.029393 -8.281301 34.938603 -30.523849 31.574404 -12.716035 1.627197 -3.035431 0.000000 0.000000 0.000000 -84.702870 -6.232868 -1.570791 5.883462 -0.897484 1.370115 4.835569 -1.527993 -0.474683 0.818233 0.822030 -0.261979 0.000000 0.000000 0.000000 4.654832 -1.260915 -0.656220 2.702016 -1.652996 -0.820120 24.325039 -2.851897 1.073907 0.000000 0.000000 0.000000 6.674312 -1.886054 -0.301608 -0.249914 4.669382 -6.493977 -2.188767 0.451977 -2.590567 41.554120 -36.408699 -32.626311 -16.211608 -86.724811 -16.174644 0.000000 0.000000 0.000000 6.128716 -1.456052 -0.526784 1.122531 -6.968767 20.325239 0.641021 3.220151 -0.214871 2.218892 41.966468 29.871197 178.855853 64.928092 -179.132994 0.000000 0.000000 0.000000 
0.432398 139.146439 14.357788 0.000000 0.000000 0.000000 -85.133657 -5.737131 0.191119 -17.261398 11.792402 10.689664 6.223125 4.335370 9.001078 27.590155 27.362049 -20.945851 -10.399609 0.188679 3.002673 0.000000 0.000000 0.000000 -85.738839 -3.348523 1.102803 -22.631542 -12.724870 -13.934335 17.928716 -3.062931 -8.511872 35.644886 -30.706611 31.765335 -12.900473 1.567997 -2.747611 0.000000 0.000000 0.000000 -84.176617 -6.376372 -1.885535 6.181885 -0.962738 1.218929 4.701216 -1.790897 -0.199926 0.813101 1.015989 -0.196819 0.000000 0.000000 0.000000 4.422620 -1.465307 -0.382098 4.279117 -1.749478 -0.859998 29.241771 -3.465131 0.273120 0.000000 0.000000 0.000000 6.400494 -2.084484 -0.031744 -0.305183 5.450245 -6.516757 -1.824308 0.466679 -2.919166 42.107256 -37.253088 -32.037655 -14.191568 -85.711156 -14.328929 0.000000 0.000000 0.000000 5.967906 -1.619545 -0.301255 1.233505 -8.006866 21.408391 1.000089 3.296296 0.104155 5.922364 38.901093 29.631502 178.570242 63.638170 -178.767415 0.000000 0.000000 0.000000 
